<svg t="1686230833403" class="icon" viewBox="0 0 1024 1024" version="1.1" xmlns="http://www.w3.org/2000/svg" p-id="894" width="16" height="16"><path d="M510.933333 785.066667c-19.2 0-36.266667-17.066667-36.266666-36.266667 0-19.2 17.066667-36.266667 36.266666-36.266667s36.266667 17.066667 36.266667 36.266667c0 19.2-14.933333 36.266667-36.266667 36.266667z m0-42.666667c-4.266667 0-6.4 2.133333-6.4 6.4s2.133333 6.4 6.4 6.4 6.4-2.133333 6.4-6.4-2.133333-6.4-6.4-6.4z" fill="#d4237a" p-id="895"></path><path d="M734.933333 859.733333h-448c-36.266667 0-64-27.733333-64-64V228.266667c0-36.266667 27.733333-64 64-64h448c36.266667 0 64 27.733333 64 64v569.6c0 34.133333-27.733333 61.866667-64 61.866666z m-448-652.8c-12.8 0-21.333333 8.533333-21.333333 21.333334v569.6c0 12.8 8.533333 21.333333 21.333333 21.333333h448c12.8 0 21.333333-8.533333 21.333334-21.333333V228.266667c0-12.8-8.533333-21.333333-21.333334-21.333334h-448z" fill="#d4237a" p-id="896"></path><path d="M762.666667 684.8H261.333333c-12.8 0-21.333333-8.533333-21.333333-21.333333s8.533333-21.333333 21.333333-21.333334h501.333334c12.8 0 21.333333 8.533333 21.333333 21.333334s-10.666667 21.333333-21.333333 21.333333z" fill="#d4237a" p-id="897"></path></svg>